Coordinates
version=1
nRows=26
nColumns=24
inDegrees=yes

Units are S.I. units (second, meters, Newtons, ...)
Angles are in degrees.

endheader
time	pelvis_tilt	pelvis_list	pelvis_rotation	pelvis_tx	pelvis_ty	pelvis_tz	hip_flexion_r	hip_adduction_r	hip_rotation_r	knee_angle_r	ankle_angle_r	subtalar_angle_r	mtp_angle_r	hip_flexion_l	hip_adduction_l	hip_rotation_l	knee_angle_l	ankle_angle_l	subtalar_angle_l	mtp_angle_l	lumbar_extension	lumbar_bending	lumbar_rotation
      0.98216667	     -0.95787122	      2.46199274	      5.07480065	     -0.14966506	      1.00023733	      0.28496756	    -14.60460326	      0.24313007	     -5.28334359	     -8.32700030	     12.25252553	     -5.91482582	      1.43503600	     19.31106040	      4.65837920	      5.81276554	      2.66179509	     -0.38111306	     -5.47680392	      1.25962247	    -14.54737558	      2.31358365	      4.76730365
      0.98633333	     -0.98836937	      2.51634503	      5.05840422	     -0.14412472	      0.99937361	      0.28441309	    -14.59795831	      0.12468275	     -5.40642990	     -9.01499146	     12.48320976	     -5.62967492	      1.64692286	     19.35105842	      4.78687416	      5.99678437	      2.65777507	     -0.45568880	     -5.49202802	      1.36924266	    -14.50789248	      2.22942171	      4.76502783
      0.99050000	     -1.00830155	      2.59883035	      5.03618086	     -0.13854302	      0.99856629	      0.28382375	    -14.57876594	     -0.03552976	     -5.57923108	     -9.75986148	     12.67536043	     -5.28475145	      1.91333313	     19.37107221	      4.94523157	      6.19056768	      2.58486127	     -0.57483549	     -5.57339132	      1.49744489	    -14.46954583	      2.15140330	      4.76133636
      0.99466667	     -1.02910140	      2.68721912	      5.01536141	     -0.13296565	      0.99778166	      0.28325209	    -14.54479813	     -0.19975575	     -5.70773763	    -10.53264806	     12.84919009	     -5.01627399	      2.18928870	     19.40774001	      5.11175883	      6.39391813	      2.40569047	     -0.74063002	     -5.71465595	      1.62051685	    -14.43054030	      2.03257281	      4.74284139
      0.99883333	     -1.04737182	      2.79719644	      4.99718935	     -0.12736007	      0.99704099	      0.28267610	    -14.49590824	     -0.38982727	     -5.84811570	    -11.34777955	     13.00119587	     -4.72582273	      2.50517564	     19.44441305	      5.30295604	      6.60812758	      2.14492882	     -0.96022383	     -5.92189437	      1.75068499	    -14.39982966	      1.89838791	      4.71669423
      1.00300000	     -1.08173663	      2.91719523	      4.99117711	     -0.12174546	      0.99630800	      0.28206908	    -14.42029056	     -0.59096472	     -5.97665811	    -12.18208072	     13.11281492	     -4.48073615	      2.89061892	     19.51092385	      5.51433507	      6.84468771	      1.79012574	     -1.23243166	     -6.19784211	      1.89911680	    -14.35967651	      1.76057693	      4.68316880
      1.00716667	     -1.09402319	      3.05365841	      4.97367825	     -0.11609641	      0.99563989	      0.28148648	    -14.34834788	     -0.81164864	     -6.09298244	    -13.05991084	     13.18675881	     -4.27173614	      3.29089597	     19.54674149	      5.73677609	      7.06433817	      1.38901203	     -1.55341373	     -6.50916404	      2.03855089	    -14.32494932	      1.58419567	      4.63286085
      1.01133333	     -1.08950962	      3.18788724	      4.99231662	     -0.11041892	      0.99502736	      0.28088122	    -14.31997455	     -1.00737824	     -6.16748984	    -13.86556425	     13.03324975	     -4.33961891	      8.51497407	     19.56661591	      5.96873618	      7.36404787	      0.93052234	     -1.96907001	     -6.96807830	      3.74985466	    -14.31999560	      1.41729641	      4.56217891
      1.01550000	     -1.11179094	      3.35249261	      4.96961635	     -0.10473883	      0.99441601	      0.28028728	    -14.19829926	     -1.26571664	     -6.26919224	    -14.81988977	     13.04140913	     -4.13308648	      8.58326087	     19.64221831	      6.22572806	      7.49079558	      0.36227521	     -2.30544329	     -7.20826639	      3.74127705	    -14.28686522	      1.21902770	      4.51199897
      1.01966667	     -1.13758457	      3.50645116	      4.96829478	     -0.09905064	      0.99382450	      0.27967657	    -14.06191789	     -1.50335578	     -6.35465490	    -15.78861254	     12.96882144	     -4.02405688	      8.69916958	     19.71578019	      6.48022609	      7.70216963	     -0.23057664	     -2.71823780	     -7.61120405	      3.73594380	    -14.24061727	      1.02581627	      4.43785922
      1.02383333	     -1.13551364	      3.67505455	      4.98558601	     -0.09333503	      0.99329994	      0.27903438	    -13.95293578	     -1.75030007	     -6.46128531	    -16.76118252	     12.83541492	     -3.93053398	      8.91841912	     19.76249509	      6.75870802	      7.93939386	     -0.87208599	     -3.16748489	     -8.12742284	      3.73300913	    -14.22755515	      0.81212669	      4.35893677
      1.02800000	     -1.14212024	      3.84648117	      4.99469411	     -0.08760706	      0.99280935	      0.27838998	    -13.80735938	     -2.00378705	     -6.54426322	    -17.77844317	     12.62900298	     -3.89928889	      9.25987828	     19.81303146	      7.03942247	      8.17110240	     -1.53087941	     -3.64375749	     -8.65879672	      3.73066529	    -14.20921581	      0.60685711	      4.27158604
      1.03216667	     -1.16207198	      4.02036557	      4.98439099	     -0.08187817	      0.99233786	      0.27778892	    -13.61213592	     -2.26209530	     -6.57632023	    -18.85247253	     12.36971598	     -3.94958790	      9.56473422	     19.88212947	      7.31452277	      8.33147162	     -2.21615467	     -4.12866863	     -9.09449717	      3.72425001	    -14.17422891	      0.40139292	      4.17240610
      1.03633333	     -1.12974697	      4.19881331	      4.99954456	     -0.07611239	      0.99197897	      0.27714783	    -13.48300788	     -2.51218286	     -6.63790506	    -19.88375566	     11.90803818	     -4.16149792	     14.78312215	     19.89194407	      7.60404323	      8.54751515	     -2.92871131	     -4.57887442	     -9.65122667	      3.68342543	    -14.20042559	      0.18279058	      4.06823432
      1.04050000	     -1.13022786	      4.38960736	      4.99695090	     -0.07035212	      0.99160580	      0.27652021	    -13.26081530	     -2.79171586	     -6.70494571	    -21.03666690	     11.51105217	     -4.22648256	     14.84395030	     19.95121656	      7.89990225	      8.63969946	     -3.68130533	     -4.99643165	    -10.01503909	      3.67098525	    -14.18511721	     -0.04831055	      3.97445865
      1.04466667	     -1.13138919	      4.57226413	      4.99728498	     -0.06459826	      0.99126158	      0.27588512	    -13.01277914	     -3.06040330	     -6.75729842	    -22.21939067	     11.03433942	     -4.36668377	     14.97017599	     20.01004299	      8.19216138	      8.77320716	     -4.44703154	     -5.40729976	    -10.49161976	      3.65204365	    -14.16778617	     -0.26952864	      3.87236700
      1.04883333	     -1.13611344	      4.73673048	      5.00864229	     -0.05885877	      0.99094294	      0.27522654	    -12.73763772	     -3.30748948	     -6.80716326	    -23.42478804	     10.48264646	     -4.52044080	     15.23176985	     20.08320615	      8.47506404	      8.92552651	     -5.24716573	     -5.80866828	    -11.05377896	      3.61834194	    -14.15790178	     -0.46824338	      3.76869483
      1.05300000	     -1.09376233	      4.95003901	      4.98815149	     -0.05308088	      0.99073392	      0.27458893	    -12.47633501	     -3.61850592	     -6.87189432	    -24.69809055	      9.84990108	     -4.74620940	     15.52402006	     20.07314472	      8.78928280	      9.02046896	     -5.99406144	     -6.14445206	    -11.47972803	      3.57953177	    -14.18571121	     -0.70799289	      3.65502518
      1.05716667	     -0.96312920	      5.18586373	      4.95000824	     -0.04726700	      0.99070441	      0.27395246	    -12.30213181	     -3.95542411	     -6.95249510	    -25.95651712	      9.07267005	     -4.95266350	     19.63171038	     19.92458761	      9.12293818	      9.19891903	     -6.66727213	     -6.58305945	    -12.23814531	      3.08388346	    -14.34297269	     -0.98156305	      3.52734826
      1.06133333	     -1.00482255	      5.34083063	      4.96254151	     -0.04154875	      0.99041516	      0.27329326	    -11.87390910	     -4.20806547	     -7.02396009	    -27.33125535	      8.27824956	     -5.28498230	     19.76251952	     20.06731972	      9.39360005	      9.21211733	     -7.56461927	     -6.61343546	    -12.37727768	      3.06713116	    -14.26722020	     -1.17003460	      3.44316376
      1.06550000	     -0.97002366	      5.53533402	      4.92883138	     -0.03580567	      0.99029014	      0.27266712	    -11.50575176	     -4.51078328	     -7.07156015	    -28.72292217	      7.40248149	     -5.59988499	     19.96686304	     20.08685636	      9.68715704	      9.22314774	     -8.38359664	     -6.71384418	    -12.69035431	      3.03459453	    -14.29962204	     -1.38224896	      3.34305926
      1.06966667	     -0.91276139	      5.74210083	      4.88796483	     -0.03005096	      0.99022884	      0.27204603	    -11.12902313	     -4.83500674	     -7.14467089	    -30.16057021	      6.44124337	     -5.94283404	     20.22749630	     20.05812094	      9.98925840	      9.25058860	     -9.16358520	     -6.76793977	    -13.02727553	      2.99114914	    -14.35101061	     -1.61738451	      3.23464879
      1.07383333	     -0.80180468	      5.95277138	      4.84153122	     -0.02430899	      0.99027971	      0.27139823	    -10.79208755	     -5.17133918	     -7.23908785	    -31.59127239	      5.31177985	     -6.33352419	     25.74840383	     19.94944411	     10.29950029	      9.34693084	     -9.91065165	     -6.79834212	    -13.51598101	      2.05587479	    -14.48599219	     -1.85918976	      3.12411755
      1.07800000	     -0.76857570	      6.14121205	      4.78426458	     -0.01861092	      0.99021824	      0.27079191	    -10.31327240	     -5.49512549	     -7.30012913	    -33.11774901	      4.21974629	     -6.70183634	     25.81174963	     19.96550479	     10.57798059	      9.29488440	    -10.73967288	     -6.63628388	    -13.69710811	      2.04747017	    -14.51157017	     -2.07548493	      3.02284403
      1.08216667	     -0.67511861	      6.35786547	      4.71480256	     -0.01290289	      0.99027233	      0.27017867	     -9.87973197	     -5.85632411	     -7.38385284	    -34.65988877	      3.03565029	     -7.10720022	     25.91011136	     19.88152597	     10.87999483	      9.26972456	    -11.50380829	     -6.46579932	    -13.93562290	      2.02759182	    -14.61160400	     -2.30457970	      2.91763686
      1.08633333	     -0.58692366	      6.56896842	      4.63367334	     -0.00721117	      0.99034505	      0.26958388	     -9.41119481	     -6.21966023	     -7.45497066	    -36.22377226	      1.77087026	     -7.53825885	     26.05247406	     19.79269232	     11.17305263	      9.24615264	    -12.25102373	     -6.23401792	    -14.17928437	      1.99337319	    -14.70690144	     -2.53561996	      2.80892655
